<svg width="20" height="20" viewBox="0 0 20 20" fill="none" xmlns="http://www.w3.org/2000/svg">
<path d="M19.2836 7.27572L13.3328 6.41087L10.6726 1.0179C10.6 0.870248 10.4805 0.750717 10.3328 0.67806C9.96249 0.495248 9.51249 0.647592 9.32733 1.0179L6.66717 6.41087L0.71639 7.27572C0.552327 7.29915 0.402327 7.3765 0.287483 7.49369C0.148643 7.63639 0.0721362 7.82837 0.074773 8.02746C0.0774098 8.22654 0.158975 8.41643 0.301546 8.5554L4.60702 12.7531L3.58983 18.6804C3.56598 18.8183 3.58123 18.9601 3.63387 19.0897C3.68651 19.2194 3.77443 19.3317 3.88765 19.4139C4.00087 19.4962 4.13486 19.545 4.27444 19.555C4.41401 19.5649 4.55359 19.5356 4.67733 19.4702L9.99999 16.6718L15.3226 19.4702C15.468 19.5476 15.6367 19.5734 15.7984 19.5452C16.2062 19.4749 16.4805 19.0882 16.4102 18.6804L15.393 12.7531L19.6984 8.5554C19.8156 8.44056 19.893 8.29056 19.9164 8.1265C19.9797 7.71634 19.6937 7.33665 19.2836 7.27572Z" fill="#FA9B44"/>
</svg>
