<svg width="90" height="90" viewBox="0 0 90 90" fill="none" xmlns="http://www.w3.org/2000/svg">
<circle cx="3" cy="87" r="3" transform="rotate(90 3 87)" fill="white"/>
<circle cx="3" cy="31" r="3" transform="rotate(90 3 31)" fill="white"/>
<circle cx="3" cy="3" r="3" transform="rotate(90 3 3)" fill="white"/>
<circle cx="3" cy="59" r="3" transform="rotate(90 3 59)" fill="white"/>
<circle cx="59" cy="87" r="3" transform="rotate(90 59 87)" fill="white"/>
<circle cx="59" cy="31" r="3" transform="rotate(90 59 31)" fill="white"/>
<circle cx="59" cy="3" r="3" transform="rotate(90 59 3)" fill="white"/>
<circle cx="59" cy="59" r="3" transform="rotate(90 59 59)" fill="white"/>
<circle cx="31" cy="87" r="3" transform="rotate(90 31 87)" fill="white"/>
<circle cx="31" cy="31" r="3" transform="rotate(90 31 31)" fill="white"/>
<circle cx="31" cy="3" r="3" transform="rotate(90 31 3)" fill="white"/>
<circle cx="31" cy="59" r="3" transform="rotate(90 31 59)" fill="white"/>
<circle cx="87" cy="87" r="3" transform="rotate(90 87 87)" fill="white"/>
<circle cx="87" cy="31" r="3" transform="rotate(90 87 31)" fill="white"/>
<circle cx="87" cy="3" r="3" transform="rotate(90 87 3)" fill="white"/>
<circle cx="87" cy="59" r="3" transform="rotate(90 87 59)" fill="white"/>
</svg>
